<?xml version="1.0" encoding="iso-8859-1"?>
<!-- Generator: Adobe Illustrator 19.0.0, SVG Export Plug-In . SVG Version: 6.00 Build 0)  -->
<svg version="1.1" id="Layer_1" xmlns="http://www.w3.org/2000/svg" xmlns:xlink="http://www.w3.org/1999/xlink" x="0px" y="0px"
	 viewBox="0 0 512 512" style="enable-background:new 0 0 512 512;" xml:space="preserve">
<rect x="28.35" y="431.802" transform="matrix(-0.7071 0.7071 -0.7071 -0.7071 411.7729 755.916)" style="fill:#7E8488;" width="41.963" height="62.873"/>
<path style="fill:#9DA1A4;" d="M303.681,252.938l-2.202,2.726L86.407,470.633l-44.461-44.461l214.968-214.968l2.621-2.098
	c5.767,7.235,12.479,14.786,20.239,22.546C288.056,239.935,296.026,246.961,303.681,252.938z"/>
<rect x="16.947" y="436.513" transform="matrix(-0.7071 0.7071 -0.7071 -0.7071 384.2449 744.489)" style="fill:#656A6E;" width="41.974" height="30.623"/>
<path style="fill:#868B8D;" d="M279.773,231.65c-7.76-7.76-14.471-15.311-20.239-22.546l-2.621,2.098L41.944,426.17l21.654,21.654
	L279.773,231.65z"/>
<g>
	
		<rect x="75.915" y="417.962" transform="matrix(-0.7096 -0.7046 0.7046 -0.7096 -152.5973 789.5651)" style="fill:#FFFFFF;" width="20.987" height="16.534"/>
	
		<rect x="98.104" y="395.664" transform="matrix(-0.7071 -0.7071 0.7071 -0.7071 -100.1783 766.3658)" style="fill:#FFFFFF;" width="21.053" height="16.534"/>
</g>
<path style="fill:#F25B22;" d="M428.625,83.837c0,0-19.724,217.553-118.639,118.639C211.146,103.635,428.625,83.837,428.625,83.837z
	"/>
<path style="fill:#FFD311;" d="M502.255,9.169c0,0-37.075,407.819-222.446,222.446S502.255,9.169,502.255,9.169z M309.987,202.475
	C408.902,301.39,428.626,83.837,428.626,83.837S211.146,103.635,309.987,202.475z"/>
<rect x="120.415" y="373.444" transform="matrix(0.7046 0.7096 -0.7096 0.7046 309.5334 19.8635)" width="20.987" height="16.534"/>
<path d="M501.542,0.899c-9.504,0.865-233.199,22.245-272.366,113.642c-12.108,28.256-5.648,59.692,19.177,93.529L0.577,455.847
	L56.73,512l248.041-247.937c22.264,16.025,43.482,24.088,63.427,24.088c9.991,0,19.668-2.019,28.991-6.061
	c91.15-39.516,112.473-262.724,113.335-272.207l0.9-9.882L501.542,0.899z M53.636,426.17l205.086-205.084
	c4.717,5.51,9.802,11.007,15.206,16.41c5.862,5.863,11.795,11.319,17.718,16.309L86.408,458.943L53.636,426.17z M23.96,455.847
	l17.985-17.985l32.771,32.771L56.73,488.618L23.96,455.847z M472.932,125.673c-20.442,77.923-48.909,126.766-82.325,141.248
	c-23.672,10.261-51.209,3.363-81.837-20.5c-7.676-5.994-15.465-12.931-23.15-20.617c-7.196-7.196-13.795-14.546-19.615-21.845
	c-24.615-31.058-31.894-58.95-21.633-82.9c14.347-33.488,63.167-62.02,141.181-82.513c45.264-11.89,88.436-17.834,107.407-20.081
	C490.715,37.409,484.785,80.485,472.932,125.673z"/>
<path d="M278.495,140.864c-7.373,20.37,1.255,43.066,25.645,67.457c18.781,18.781,36.551,28.224,53.029,28.224
	c4.944,0,9.773-0.851,14.476-2.554c22.801-8.258,40.716-36.325,53.251-83.422c8.967-33.693,11.844-64.684,11.963-65.986l0.896-9.879
	l-9.879,0.899c-1.303,0.119-32.29,3.008-65.977,11.986C314.81,100.139,286.749,118.063,278.495,140.864z M419.21,93.257
	c-1.53,11.693-4.688,32-10.293,53.06c-10.904,40.97-25.739,65.911-42.903,72.128c-13.819,5.004-30.703-2.335-50.182-21.816
	c-19.455-19.456-26.789-36.323-21.792-50.132c6.199-17.136,31.065-31.963,71.91-42.876C387.047,97.983,407.469,94.798,419.21,93.257
	z"/>
<rect x="321.223" y="156.61" transform="matrix(-0.7071 -0.7071 0.7071 -0.7071 449.6802 516.0176)" width="20.976" height="16.534"/>
<rect x="350.883" y="156.608" transform="matrix(-0.7071 -0.7071 0.7071 -0.7071 500.3145 536.9867)" width="20.976" height="16.534"/>
<g>
</g>
<g>
</g>
<g>
</g>
<g>
</g>
<g>
</g>
<g>
</g>
<g>
</g>
<g>
</g>
<g>
</g>
<g>
</g>
<g>
</g>
<g>
</g>
<g>
</g>
<g>
</g>
<g>
</g>
</svg>
